<svg width="486" height="240" viewBox="0 0 486 240" fill="none" xmlns="http://www.w3.org/2000/svg">
<rect width="120" height="240" fill="#246E4C"/>
<rect x="120" width="60" height="240" fill="#B3AD6C"/>
<path d="M200.52 168V166.4L203.72 165.12C205.853 164.373 207.24 163.36 207.88 162.08C208.627 160.8 209 159.093 209 156.96V73.44C209 71.3067 208.68 69.6 208.04 68.32C207.4 67.04 205.96 66.0267 203.72 65.28L200.52 64V62.4H241.64V64L238.44 65.28C236.307 66.0267 234.867 67.04 234.12 68.32C233.48 69.6 233.16 71.3067 233.16 73.44V156.96C233.16 159.093 233.48 160.8 234.12 162.08C234.867 163.253 236.307 164.267 238.44 165.12L241.64 166.4V168H200.52ZM290.826 204.8V203.2L294.186 202.4C298.24 201.227 300.266 198.56 300.266 194.4V162.56C297.173 164.907 293.6 166.773 289.546 168.16C285.6 169.653 281.173 170.4 276.266 170.4C267.2 170.4 259.68 166.987 253.706 160.16C247.733 153.333 244.746 143.413 244.746 130.4C244.746 121.44 246.24 113.867 249.226 107.68C252.213 101.493 256.32 96.8 261.546 93.6C266.88 90.2933 273.013 88.64 279.946 88.64C284.64 88.64 288.906 89.3333 292.746 90.72C296.693 92.1067 300.16 93.8667 303.146 96L321.386 88.64L322.986 90.24L322.506 111.84V194.88C322.506 199.253 324.426 201.867 328.266 202.72L329.706 203.2V204.8H290.826ZM286.826 164C291.306 164 295.626 162.293 299.786 158.88V98.08C297.973 96.9067 296.106 96.0533 294.186 95.52C292.266 94.9867 289.973 94.72 287.306 94.72C281.653 94.72 277.173 97.4933 273.866 103.04C270.56 108.48 268.906 117.493 268.906 130.08C268.906 142.347 270.506 151.093 273.706 156.32C276.906 161.44 281.28 164 286.826 164ZM333.638 168V166.4L336.038 165.76C338.171 165.12 339.611 164.16 340.358 162.88C341.211 161.6 341.638 159.947 341.638 157.92V107.84C341.638 105.493 341.211 103.787 340.358 102.72C339.611 101.547 338.171 100.747 336.038 100.32L333.638 99.68V98.08L361.158 88.8L362.758 90.4L364.198 104.16V105.44C365.691 102.453 367.611 99.7333 369.958 97.28C372.411 94.72 375.078 92.64 377.958 91.04C380.944 89.44 383.878 88.64 386.758 88.64C390.811 88.64 393.904 89.76 396.038 92C398.171 94.24 399.238 97.0667 399.238 100.48C399.238 104.107 398.171 106.933 396.038 108.96C394.011 110.88 391.558 111.84 388.678 111.84C384.198 111.84 380.251 109.6 376.838 105.12L376.518 104.8C375.451 103.307 374.224 102.507 372.838 102.4C371.451 102.187 370.171 102.827 368.998 104.32C367.931 105.28 367.024 106.453 366.278 107.84C365.638 109.12 364.998 110.613 364.358 112.32V156.96C364.358 161.227 366.224 163.893 369.958 164.96L375.078 166.4V168H333.638ZM442.243 170.4C434.136 170.4 427.096 168.747 421.123 165.44C415.149 162.027 410.509 157.227 407.203 151.04C404.003 144.853 402.403 137.6 402.403 129.28C402.403 120.96 404.109 113.76 407.523 107.68C411.043 101.6 415.789 96.9067 421.763 93.6C427.843 90.2933 434.669 88.64 442.243 88.64C449.816 88.64 456.589 90.2933 462.563 93.6C468.536 96.8 473.229 101.44 476.643 107.52C480.163 113.6 481.923 120.853 481.923 129.28C481.923 137.707 480.269 145.013 476.963 151.2C473.763 157.28 469.176 162.027 463.203 165.44C457.336 168.747 450.349 170.4 442.243 170.4ZM442.243 167.2C445.976 167.2 448.963 166.133 451.203 164C453.443 161.867 455.043 158.08 456.003 152.64C457.069 147.2 457.603 139.52 457.603 129.6C457.603 119.573 457.069 111.84 456.003 106.4C455.043 100.96 453.443 97.1733 451.203 95.04C448.963 92.9067 445.976 91.84 442.243 91.84C438.509 91.84 435.469 92.9067 433.123 95.04C430.883 97.1733 429.229 100.96 428.163 106.4C427.203 111.84 426.723 119.573 426.723 129.6C426.723 139.52 427.203 147.2 428.163 152.64C429.229 158.08 430.883 161.867 433.123 164C435.469 166.133 438.509 167.2 442.243 167.2Z" fill="black"/>
</svg>
